<?xml version="1.0" encoding="utf-8"?>
<!-- Generator: Adobe Illustrator 22.1.0, SVG Export Plug-In . SVG Version: 6.00 Build 0)  -->
<svg version="1.1" id="Layer_1" xmlns="http://www.w3.org/2000/svg" xmlns:xlink="http://www.w3.org/1999/xlink" x="0px" y="0px"
	 viewBox="0 0 1200 600" style="enable-background:new 0 0 1200 600;" xml:space="preserve">
<style type="text/css">
	.st0{fill:#6E0E10;}
	.st1{fill:#25215C;}
</style>
<g>
	<g>
		<polygon class="st0" points="1112.1,372.3 1131.2,361.3 1150.2,350.2 1131.1,339.3 1112,328.3 1112,338.7 201.9,338.7 
			201.9,365.2 260.4,365.2 260.4,546.7 285,546.7 285,365.2 1112.1,365.2 		"/>
		<path class="st0" d="M422.9,515.9c-8.6-14-15.2-23.7-19.9-29.4c-4.7-5.6-9.6-10-14.5-13.3c8.4-3.2,14.9-8.2,19.4-14.7
			c4.5-6.6,6.8-14.4,6.8-23.4c0-13.2-4.6-23.7-13.8-31.5c-9.2-7.8-21.6-11.6-37.3-11.6h-38.8v154.7h22.2v-67.3h5.8
			c7.2,0,12.4,0.8,15.5,2.5c3.1,1.7,6.5,4.4,10.3,8.1c3.8,3.8,8,8.8,12.6,15.2l7.4,12.1l6.9,11.3l4.3,6.1c0.7,0.9,1.1,1.5,1.3,1.9
			l6.7,10.2H444l-8.2-11.1C432.6,531.3,428.2,524.7,422.9,515.9z M378.4,456.9c-4.2,1.9-11.9,2.9-23.1,2.9h-8.4v-48.8h6.6
			c10.9,0,18.6,0.8,23.3,2.4c4.7,1.6,8.3,4.4,10.9,8.4c2.6,4,3.9,8.4,3.9,13.2c0,4.9-1.2,9.4-3.5,13.2
			C385.8,452.1,382.6,455,378.4,456.9z"/>
		<path class="st0" d="M510.5,391.2L444,546.8h22.8l19.3-45.9h66l20.6,45.9h22.7l-69.4-155.6H510.5z M494.9,481.3l23.2-56l25,56
			H494.9z"/>
		<path class="st0" d="M714.7,401.6c-12.3-6.3-28.9-9.5-50-9.5h-52.2v154.5h49c13.7,0,23-0.4,27.9-1.2c4.9-0.8,10.2-2.3,16.1-4.6
			c10-3.8,18.7-9.3,26.3-16.7c7.4-7.2,13.1-15.5,17.1-24.9c4-9.5,6-19.3,6-29.7c0-14.5-3.6-27.8-10.9-40.1
			C736.7,417.2,727,407.9,714.7,401.6z M715.5,510.3c-3.4,3.4-7.1,6.3-11.2,8.6c-4.1,2.3-9.2,4.2-15.3,5.8
			c-6.1,1.5-14.7,2.3-25.8,2.3h-28.4V411.8h27.7c10.6,0,18.3,0.4,23.1,1.2c4.8,0.8,9.9,2.5,15.2,5c5.4,2.5,10.1,5.7,14.2,9.6
			c11.2,10.5,16.8,24,16.8,40.7C731.9,485.2,726.4,499.2,715.5,510.3z"/>
		<rect x="782.7" y="392.1" class="st0" width="22.2" height="154.7"/>
		<polygon class="st0" points="962.2,512.3 857.8,392.1 839.9,392.1 839.9,546.8 860.7,546.8 860.7,427.7 964.2,546.8 983.2,546.8 
			983.2,392.1 962.2,392.1 		"/>
		<path class="st0" d="M1100,470.6v19.7h29.8v32.2l-2.1,0.7c-12.3,4.1-22.9,6.1-31.8,6.1c-18.2,0-33.2-5.6-44.8-16.7
			c-11.6-11.1-17.4-25.5-17.4-43.1c0-16.8,5.8-30.9,17.4-42.4c11.6-11.5,25.8-17.3,42.8-17.3c18.2,0,36.5,5.4,54.9,16.1v-22.6
			c-12-5-21.9-8.5-29.7-10.4c-7.8-1.9-16.1-2.8-24.8-2.8c-23.9,0-43.8,7.7-59.7,23c-15.9,15.4-23.8,34.6-23.8,57.7
			c0,21.9,7.7,40.4,23,55.3c15.3,15,35.8,22.4,61.4,22.4c18.8,0,37.7-4.1,56.7-12.4v-65.6H1100z"/>
	</g>
	<g>
		<rect x="259.4" y="138.9" class="st1" width="26.3" height="183.7"/>
		<polygon class="st1" points="442.9,138.9 388,267.9 332.7,138.9 306.3,138.9 385.4,323.4 391.4,323.4 469.1,138.9 		"/>
		<path class="st1" d="M526.3,137.8l-78.9,184.8h27l23-54.4h78.4l24.5,54.4h26.9l-82.4-184.8H526.3z M507.8,244.7l27.5-66.5
			l29.6,66.5H507.8z"/>
		<polygon class="st1" points="604.7,162 667.7,162 667.7,322.6 694.1,322.6 694.1,162 758.2,162 758.2,138.6 604.7,138.6 		"/>
		<path class="st1" d="M910.9,243.2c0,14.5-1.1,24.7-3.4,30.6c-2.3,6-6,11.1-11.2,15.5c-9.8,8.2-22.5,12.2-38.1,12.2
			c-11,0-20.5-2-28.5-6.1c-8.1-4.1-14.1-9.5-18-16.2c-3.9-6.8-5.9-18.8-5.9-36V138.9h-26.4v104c0,14.8,1,25.7,3,32.6
			c2,6.9,4.5,12.8,7.5,17.6c3,4.8,6.7,9.1,11.1,13c14.5,12.5,33.7,18.7,57.6,18.7c23.5,0,42.5-6.3,57.1-18.8
			c4.4-3.8,8.1-8,11.1-12.8c3-4.8,5.6-10.8,7.6-18c2.1-7.2,3.1-17.8,3.1-32V138.9h-26.4V243.2z"/>
		<path class="st1" d="M1034.5,223.9l-20.1-11.9c-9-5.3-15.6-10.3-19.6-15.1c-4.1-4.8-6.1-10-6.1-15.5c0-6.2,2.8-11.3,8.3-15.3
			c5.5-4,12.6-6,21.2-6c15.3,0,29.5,6.4,42.7,19.1v-29.9c-12.8-8.6-26.9-12.9-42.2-12.9c-16,0-29.1,4.5-39.1,13.5
			c-10,9-15.1,20.8-15.1,35.2c0,9.6,2.7,18.2,8,25.6c5.3,7.4,14.2,14.9,26.8,22.6l20,12.1c16.1,10,24.2,20.6,24.2,31.8
			c0,6.9-2.7,12.6-8.2,17.2c-5.5,4.6-12.3,6.9-20.6,6.9c-18.7,0-35.1-9-49.3-27V308c14.9,11.2,31.4,16.7,49.6,16.7
			c15.8,0,28.6-4.6,38.5-13.8c9.9-9.2,14.8-21.2,14.8-35.9C1068.2,254.3,1057,237.2,1034.5,223.9z"/>
		<polygon class="st1" points="284.2,8 253.2,30 222.3,52.1 245.3,62.6 158,267.9 102.7,138.9 76.2,138.9 144.1,297.1 93.8,297.1 
			33.2,414.4 56.5,426.5 109.8,323.4 155.4,323.4 155.4,323.4 161.4,323.4 267,72.5 291.4,83.7 287.8,45.8 		"/>
	</g>
	<path class="st1" d="M716.4-44.4"/>
</g>
</svg>
